<svg width="230" height="304" viewBox="0 0 230 304" fill="none" xmlns="http://www.w3.org/2000/svg">
<path d="M101.232 1.17535C102.989 0.288198 104.149 -0.297648 105.288 0.158752C106.446 0.622507 106.731 1.13332 109.969 16.3638C111.366 22.9338 113.278 31.9322 114.02 33.1353C114.832 34.2949 115.972 35.0627 116.985 35.1275C117.712 35.1739 118.352 34.8673 118.965 34.192C119.991 32.9705 121.895 23.7813 123.154 17.7007C125.261 7.53392 126.164 3.58362 127.304 2.44391C129.187 0.558829 131.507 1.85682 133.749 3.10992C135.372 4.01751 137.212 5.04565 139.374 5.43903C141.395 5.80663 143.772 5.5938 145.871 5.40778C148.772 5.15046 150.867 4.96397 152.077 6.16754C152.457 6.5453 152.89 7.21702 152.802 8.27399C152.683 9.69517 151.58 13.5518 149.776 19.7339C148.38 24.5205 146.468 31.0754 146.468 32.2847C146.468 33.0389 146.334 33.7327 146.215 34.3443C145.868 36.1328 145.659 37.2129 148.936 39.2974C149.907 39.9159 151.045 40.5627 152.362 41.3121C158.254 44.6634 166.324 49.254 172.075 58.2916C177.308 66.514 179.583 73.6605 180.409 76.8023L181.042 76.5865C188.037 74.1884 196.742 71.2036 215.083 63.7213L218.809 62.2007L217.009 65.8004C214.033 71.7522 222.209 96.6935 228.234 103.182L229.909 104.986L227.544 105.668C227.354 105.722 209.517 110.866 195.169 115.193C202.188 122.995 208.487 146.262 203.722 165.29C200.884 176.621 197.608 181.039 195.84 182.695C199.677 192.138 196.415 211.353 186.126 239.862C178.66 260.551 155.047 300.512 131.755 303.688C131.09 303.779 130.386 303.824 129.655 303.824C106.035 303.824 49.2849 257.589 31.3066 230.865C19.0253 212.608 13.7676 201.01 13.2734 191.037C9.14052 184.973 -2.72994 164.485 0.573236 133.553C3.64339 104.809 25.2382 89.9549 31.7842 86.0865C32.1074 85.8955 32.4295 85.7108 32.75 85.5328C37.2268 61.1119 34.311 52.0986 31.4814 43.355L31.2861 42.7496C30.6907 40.9063 29.7265 38.8472 28.875 37.0308C27.1546 33.3593 26.1165 31.1428 27.1348 29.6441C27.3951 29.2607 28.0241 28.6264 29.2441 28.7047C34.9707 29.0537 38.7145 28.0714 44.458 25.8755C48.8593 24.1926 52.0473 21.241 54.374 19.0855C56.5211 17.0975 58.3755 15.3832 60.041 16.9088L60.2002 17.0552L60.3125 17.2398C67.0461 28.3433 73.0575 46.5324 75.7275 58.5855C76.7867 57.4543 77.8063 56.402 78.7646 55.4136C83.6293 50.3964 87.144 46.771 86.6426 42.4566C86.0553 37.4089 83.949 28.8163 82.0908 21.2349C78.5023 6.59275 78.4386 5.48968 79.6416 4.52692C80.6631 3.70931 82.0483 3.90195 83.9639 4.17145C86.1067 4.47223 89.0371 4.88428 92.7559 4.2193C96.5447 3.54255 99.2543 2.17421 101.232 1.17535Z" fill="#74AFC3"/>
</svg>
